<mxfile host="app.diagrams.net" modified="2023-03-27T19:38:37.088Z" agent="Mozilla/5.0 (Macintosh; Intel Mac OS X 10_15_7) AppleWebKit/537.36 (KHTML, like Gecko) Chrome/111.0.0.0 Safari/537.36" version="21.1.1" etag="aQAhzJL7KtpB9yzcG-MW" type="github">
  <diagram name="PÃ¡gina-1" id="iX2w8vuQl-GkDlNIculN">
    <mxGraphModel>
      <root>
        <mxCell id="0" />
        <mxCell id="1" parent="0" />
      </root>
    </mxGraphModel>
  </diagram>
</mxfile>
